<svg width="375" height="812" viewBox="0 0 375 812" fill="none" xmlns="http://www.w3.org/2000/svg">
<path d="M55.46 129C60.6397 129 64.8767 133.378 65.2236 138.919C71.1151 139.672 75.6143 143.71 75.6143 148.581C75.6142 152.112 73.2488 155.206 69.7031 156.928C70.1713 158.172 70.4316 159.533 70.4316 160.961C70.4316 166.845 66.0483 171.615 60.6416 171.615C56.8544 171.615 53.5715 169.274 51.9434 165.85C49.9381 167.289 47.348 168.159 44.5176 168.159C38.1568 168.159 33.0002 163.777 33 158.37C33 155.523 34.4302 152.96 36.7129 151.171C34.4307 149.382 33 146.82 33 143.974C33 138.567 38.1566 134.184 44.5176 134.184C45.3491 134.184 46.1598 134.26 46.9414 134.402C48.6241 131.177 51.808 129 55.46 129Z" fill="#F86C60"/>
<path d="M55.1719 152.035C56.2849 152.035 57.1873 152.937 57.1875 154.05C57.1875 155.163 56.285 156.065 55.1719 156.065C54.0587 156.065 53.1562 155.163 53.1562 154.05C53.1565 152.937 54.0589 152.035 55.1719 152.035ZM48.8359 150.883C49.949 150.883 50.8514 151.785 50.8516 152.898C50.8516 154.012 49.9491 154.914 48.8359 154.914C47.7228 154.914 46.8203 154.012 46.8203 152.898C46.8205 151.785 47.7229 150.883 48.8359 150.883ZM58.625 147.43C59.738 147.43 60.6404 148.331 60.6406 149.444C60.6406 150.557 59.7381 151.46 58.625 151.46C57.5118 151.46 56.6094 150.558 56.6094 149.444C56.6096 148.331 57.512 147.43 58.625 147.43ZM48.8359 144.548C49.949 144.548 50.8514 145.45 50.8516 146.563C50.8516 147.677 49.9491 148.579 48.8359 148.579C47.7228 148.579 46.8203 147.677 46.8203 146.563C46.8205 145.45 47.7229 144.548 48.8359 144.548ZM55.1719 141.669C56.285 141.669 57.1875 142.571 57.1875 143.685C57.1875 144.798 56.285 145.7 55.1719 145.7C54.0587 145.7 53.1563 144.798 53.1562 143.685C53.1562 142.571 54.0587 141.669 55.1719 141.669Z" fill="#FFDF3E"/>
<path d="M41.9727 660C44.964 660 47.4111 662.528 47.6123 665.728C51.0161 666.162 53.6152 668.496 53.6152 671.31C53.6152 673.349 52.2493 675.136 50.2012 676.131C50.4717 676.85 50.622 677.636 50.6221 678.461C50.6221 681.86 48.0898 684.615 44.9668 684.615C42.7793 684.615 40.8837 683.262 39.9434 681.284C38.7849 682.116 37.2878 682.619 35.6523 682.619C31.9785 682.619 29.0003 680.088 29 676.965C29 675.32 29.8259 673.839 31.1445 672.806C29.8263 671.772 29 670.293 29 668.648C29.0001 665.526 31.9784 662.994 35.6523 662.994C36.133 662.994 36.602 663.038 37.0537 663.12C38.0257 661.257 39.8637 660 41.9727 660Z" fill="#F86C60"/>
<path d="M41.8066 673.306C42.4496 673.306 42.9707 673.827 42.9707 674.47C42.9705 675.113 42.4495 675.634 41.8066 675.634C41.1638 675.634 40.6428 675.112 40.6426 674.47C40.6426 673.827 41.1637 673.306 41.8066 673.306ZM38.1484 672.64C38.7914 672.64 39.3125 673.161 39.3125 673.804C39.3125 674.447 38.7914 674.968 38.1484 674.968C37.5055 674.968 36.9844 674.447 36.9844 673.804C36.9844 673.161 37.5055 672.64 38.1484 672.64ZM43.8027 670.645C44.4457 670.645 44.9668 671.166 44.9668 671.809C44.9666 672.451 44.4456 672.973 43.8027 672.973C43.1599 672.973 42.6389 672.451 42.6387 671.809C42.6387 671.166 43.1598 670.645 43.8027 670.645ZM38.1484 668.98C38.7914 668.98 39.3125 669.503 39.3125 670.146C39.3122 670.788 38.7913 671.31 38.1484 671.31C37.5057 671.31 36.9846 670.788 36.9844 670.146C36.9844 669.503 37.5055 668.981 38.1484 668.98ZM41.8066 667.317C42.4496 667.317 42.9706 667.839 42.9707 668.481C42.9707 669.124 42.4496 669.646 41.8066 669.646C41.1637 669.645 40.6426 669.124 40.6426 668.481C40.6427 667.839 41.1638 667.317 41.8066 667.317Z" fill="#FFDF3E"/>
<ellipse cx="341.23" cy="651.75" rx="6.2027" ry="6.75" fill="#FFDF3E"/>
<ellipse cx="346.157" cy="657.405" rx="7.84459" ry="6.2027" fill="#FFDF3E"/>
<ellipse cx="344.515" cy="665.25" rx="6.2027" ry="6.75" fill="#FFDF3E"/>
<ellipse cx="334.297" cy="663.608" rx="7.2973" ry="6.2027" fill="#FFDF3E"/>
<ellipse cx="334.297" cy="654.486" rx="7.2973" ry="6.2027" fill="#FFDF3E"/>
<path d="M341.048 660.324C341.753 660.324 342.325 660.896 342.325 661.602C342.325 662.307 341.753 662.878 341.048 662.878C340.343 662.878 339.772 662.307 339.771 661.602C339.771 660.896 340.343 660.324 341.048 660.324ZM337.035 659.595C337.74 659.595 338.312 660.167 338.312 660.872C338.311 661.577 337.74 662.148 337.035 662.148C336.33 662.148 335.758 661.577 335.758 660.872C335.758 660.167 336.33 659.595 337.035 659.595ZM343.238 657.405C343.943 657.405 344.515 657.977 344.515 658.683C344.514 659.388 343.943 659.959 343.238 659.959C342.533 659.959 341.961 659.388 341.961 658.683C341.961 657.977 342.533 657.405 343.238 657.405ZM337.035 655.581C337.74 655.581 338.312 656.153 338.312 656.858C338.311 657.563 337.74 658.135 337.035 658.135C336.33 658.135 335.758 657.564 335.758 656.858C335.758 656.153 336.33 655.581 337.035 655.581ZM341.048 653.757C341.753 653.757 342.325 654.329 342.325 655.034C342.325 655.739 341.753 656.311 341.048 656.311C340.343 656.31 339.772 655.739 339.771 655.034C339.771 654.329 340.343 653.757 341.048 653.757Z" fill="#F86C60"/>
<ellipse cx="292.23" cy="94.75" rx="6.2027" ry="6.75" fill="#FFDF3E"/>
<ellipse cx="297.157" cy="100.405" rx="7.84459" ry="6.2027" fill="#FFDF3E"/>
<ellipse cx="295.515" cy="108.25" rx="6.2027" ry="6.75" fill="#FFDF3E"/>
<ellipse cx="285.297" cy="106.608" rx="7.2973" ry="6.2027" fill="#FFDF3E"/>
<ellipse cx="285.297" cy="97.4864" rx="7.2973" ry="6.2027" fill="#FFDF3E"/>
<path d="M292.048 103.324C292.753 103.324 293.325 103.896 293.325 104.602C293.325 105.307 292.753 105.878 292.048 105.878C291.343 105.878 290.772 105.307 290.771 104.602C290.771 103.896 291.343 103.324 292.048 103.324ZM288.035 102.595C288.74 102.595 289.312 103.167 289.312 103.872C289.311 104.577 288.74 105.148 288.035 105.148C287.33 105.148 286.758 104.577 286.758 103.872C286.758 103.167 287.33 102.595 288.035 102.595ZM294.238 100.405C294.943 100.405 295.515 100.977 295.515 101.683C295.514 102.388 294.943 102.959 294.238 102.959C293.533 102.959 292.961 102.388 292.961 101.683C292.961 100.977 293.533 100.405 294.238 100.405ZM288.035 98.5811C288.74 98.5813 289.312 99.1532 289.312 99.8584C289.311 100.563 288.74 101.135 288.035 101.135C287.33 101.135 286.758 100.564 286.758 99.8584C286.758 99.1531 287.33 98.5811 288.035 98.5811ZM292.048 96.7568C292.753 96.7568 293.325 97.3289 293.325 98.0342C293.325 98.7393 292.753 99.3105 292.048 99.3105C291.343 99.3103 290.772 98.7391 290.771 98.0342C290.771 97.329 291.343 96.7571 292.048 96.7568Z" fill="#F86C60"/>
<ellipse cx="293.517" cy="118.885" rx="2.57995" ry="5.98823" transform="rotate(-64.7967 293.517 118.885)" fill="#5AD448"/>
<ellipse cx="329.906" cy="641.516" rx="2.57995" ry="5.98823" transform="rotate(-37.7617 329.906 641.516)" fill="#5AD448"/>
<ellipse cx="337.082" cy="641.282" rx="2.57995" ry="3.92351" transform="rotate(17.6395 337.082 641.282)" fill="#5AD448"/>
<ellipse cx="280.514" cy="117.575" rx="2.57995" ry="5.98823" transform="rotate(-111.244 280.514 117.575)" fill="#5AD448"/>
<mask id="path-21-inside-1_2829_5415" fill="white">
<path d="M330.361 264C333.673 264 336.381 266.799 336.604 270.341C340.371 270.822 343.247 273.405 343.247 276.52C343.247 278.778 341.734 280.756 339.467 281.856C339.766 282.652 339.934 283.523 339.934 284.437C339.933 288.198 337.131 291.248 333.674 291.248C331.252 291.248 329.153 289.751 328.112 287.562C326.83 288.482 325.174 289.039 323.364 289.039C319.297 289.039 316 286.236 316 282.779C316 280.959 316.915 279.32 318.375 278.176C316.915 277.032 316 275.394 316 273.573C316 270.116 319.297 267.314 323.364 267.313C323.896 267.313 324.415 267.363 324.915 267.454C325.991 265.392 328.026 264 330.361 264Z"/>
</mask>
<path d="M330.361 264L330.361 262.895H330.361V264ZM336.604 270.341L335.501 270.41L335.558 271.321L336.463 271.437L336.604 270.341ZM343.247 276.52L344.352 276.52V276.52H343.247ZM339.467 281.856L338.984 280.863L338.078 281.303L338.433 282.246L339.467 281.856ZM339.934 284.437L341.038 284.437V284.437H339.934ZM333.674 291.248V292.353H333.674L333.674 291.248ZM328.112 287.562L329.11 287.087L328.542 285.893L327.468 286.664L328.112 287.562ZM323.364 289.039L323.364 290.144H323.364V289.039ZM316 282.779H314.895V282.779L316 282.779ZM318.375 278.176L319.056 279.045L320.166 278.176L319.056 277.306L318.375 278.176ZM316 273.573L314.895 273.573V273.573H316ZM323.364 267.313V266.209L323.364 266.209L323.364 267.313ZM324.915 267.454L324.717 268.541L325.518 268.687L325.894 267.965L324.915 267.454ZM330.361 264L330.361 265.105C333.007 265.105 335.31 267.364 335.501 270.41L336.604 270.341L337.706 270.272C337.452 266.233 334.339 262.895 330.361 262.895L330.361 264ZM336.604 270.341L336.463 271.437C339.895 271.875 342.142 274.154 342.142 276.52H343.247H344.352C344.352 272.656 340.846 269.769 336.744 269.245L336.604 270.341ZM343.247 276.52L342.142 276.52C342.142 278.245 340.982 279.893 338.984 280.863L339.467 281.856L339.949 282.85C342.487 281.618 344.352 279.311 344.352 276.52L343.247 276.52ZM339.467 281.856L338.433 282.246C338.687 282.919 338.829 283.659 338.829 284.437H339.934H341.038C341.038 283.388 340.846 282.385 340.501 281.467L339.467 281.856ZM339.934 284.437L338.829 284.436C338.829 287.678 336.435 290.143 333.674 290.143L333.674 291.248L333.674 292.353C337.827 292.353 341.038 288.719 341.038 284.437L339.934 284.437ZM333.674 291.248V290.143C331.732 290.143 329.992 288.942 329.11 287.087L328.112 287.562L327.115 288.036C328.315 290.56 330.773 292.353 333.674 292.353V291.248ZM328.112 287.562L327.468 286.664C326.378 287.447 324.949 287.934 323.364 287.934V289.039V290.144C325.399 290.144 327.282 289.518 328.757 288.459L328.112 287.562ZM323.364 289.039L323.364 287.934C319.732 287.934 317.105 285.465 317.105 282.779L316 282.779L314.895 282.779C314.896 287.008 318.862 290.144 323.364 290.144L323.364 289.039ZM316 282.779H317.105C317.105 281.349 317.821 280.013 319.056 279.045L318.375 278.176L317.694 277.306C316.009 278.626 314.895 280.568 314.895 282.779H316ZM318.375 278.176L319.056 277.306C317.821 276.338 317.105 275.003 317.105 273.573H316H314.895C314.895 275.784 316.01 277.726 317.694 279.045L318.375 278.176ZM316 273.573L317.105 273.573C317.105 270.888 319.732 268.418 323.364 268.418L323.364 267.313L323.364 266.209C318.862 266.209 314.896 269.345 314.895 273.573L316 273.573ZM323.364 267.313V268.418C323.828 268.418 324.28 268.461 324.717 268.541L324.915 267.454L325.113 266.367C324.55 266.265 323.965 266.209 323.364 266.209V267.313ZM324.915 267.454L325.894 267.965C326.804 266.221 328.488 265.105 330.361 265.105V264V262.895C327.565 262.895 325.178 264.563 323.936 266.943L324.915 267.454Z" fill="#F86C60" mask="url(#path-21-inside-1_2829_5415)"/>
<circle cx="329.07" cy="277.44" r="1.28876" fill="#FFDF3E"/>
<mask id="path-24-inside-2_2829_5415" fill="white">
<path d="M37.8877 504C41.0901 504 43.7096 506.706 43.9248 510.132C47.5684 510.597 50.3516 513.095 50.3516 516.107C50.3515 518.291 48.8878 520.203 46.6953 521.268C46.9852 522.038 47.1465 522.88 47.1465 523.764C47.1464 527.402 44.436 530.352 41.0928 530.352C38.7509 530.352 36.7206 528.904 35.7139 526.786C34.4739 527.676 32.8722 528.215 31.1221 528.215C27.1888 528.215 24.0002 525.504 24 522.161C24 520.4 24.8843 518.815 26.2959 517.709C24.8847 516.603 24.0001 515.019 24 513.259C24 509.915 27.1887 507.205 31.1221 507.205C31.6363 507.205 32.1378 507.252 32.6211 507.34C33.6617 505.346 35.6298 504 37.8877 504Z"/>
</mask>
<path d="M37.8877 504V502.576H37.8877L37.8877 504ZM43.9248 510.132L42.5032 510.221L42.577 511.396L43.7444 511.545L43.9248 510.132ZM50.3516 516.107L51.7759 516.107V516.107H50.3516ZM46.6953 521.268L46.0731 519.986L44.9045 520.554L45.3623 521.77L46.6953 521.268ZM47.1465 523.764L48.5709 523.764V523.764H47.1465ZM41.0928 530.352V531.776H41.0928L41.0928 530.352ZM35.7139 526.786L37.0003 526.175L36.2681 524.635L34.8831 525.629L35.7139 526.786ZM31.1221 528.215V529.639H31.1221L31.1221 528.215ZM24 522.161H22.5756V522.161L24 522.161ZM26.2959 517.709L27.1745 518.83L28.605 517.709L27.1746 516.588L26.2959 517.709ZM24 513.259H22.5756V513.259L24 513.259ZM31.1221 507.205L31.1221 505.781H31.1221V507.205ZM32.6211 507.34L32.3659 508.741L33.3983 508.929L33.8839 507.999L32.6211 507.34ZM37.8877 504V505.424C40.2318 505.424 42.3282 507.435 42.5032 510.221L43.9248 510.132L45.3464 510.043C45.091 505.977 41.9485 502.576 37.8877 502.576V504ZM43.9248 510.132L43.7444 511.545C46.956 511.955 48.9272 514.062 48.9272 516.107H50.3516H51.7759C51.7759 512.129 48.1809 509.239 44.1052 508.719L43.9248 510.132ZM50.3516 516.107L48.9272 516.107C48.9271 517.603 47.9177 519.09 46.0731 519.986L46.6953 521.268L47.3175 522.549C49.858 521.315 51.7758 518.979 51.7759 516.107L50.3516 516.107ZM46.6953 521.268L45.3623 521.77C45.5927 522.381 45.7221 523.054 45.7221 523.764H47.1465H48.5709C48.5709 522.706 48.3778 521.694 48.0283 520.766L46.6953 521.268ZM47.1465 523.764L45.7221 523.764C45.7221 526.731 43.5384 528.927 41.0928 528.927L41.0928 530.352L41.0928 531.776C45.3337 531.776 48.5708 528.073 48.5709 523.764L47.1465 523.764ZM41.0928 530.352V528.927C39.3693 528.927 37.802 527.861 37.0003 526.175L35.7139 526.786L34.4275 527.398C35.6392 529.946 38.1324 531.776 41.0928 531.776V530.352ZM35.7139 526.786L34.8831 525.629C33.8914 526.341 32.5818 526.79 31.122 526.79L31.1221 528.215L31.1221 529.639C33.1627 529.639 35.0564 529.012 36.5446 527.943L35.7139 526.786ZM31.1221 528.215V526.79C27.7497 526.79 25.4245 524.509 25.4244 522.161L24 522.161L22.5756 522.161C22.5758 526.499 26.628 529.639 31.1221 529.639V528.215ZM24 522.161H25.4244C25.4244 520.903 26.0529 519.709 27.1745 518.83L26.2959 517.709L25.4173 516.588C23.7157 517.921 22.5756 519.898 22.5756 522.161H24ZM26.2959 517.709L27.1746 516.588C26.0528 515.709 25.4245 514.516 25.4244 513.259L24 513.259L22.5756 513.259C22.5757 515.522 23.7166 517.497 25.4172 518.83L26.2959 517.709ZM24 513.259H25.4244C25.4244 510.91 27.7496 508.629 31.1221 508.629V507.205V505.781C26.6279 505.781 22.5756 508.921 22.5756 513.259H24ZM31.1221 507.205L31.122 508.629C31.55 508.629 31.966 508.668 32.3659 508.741L32.6211 507.34L32.8763 505.939C32.3095 505.835 31.7227 505.781 31.1221 505.781L31.1221 507.205ZM32.6211 507.34L33.8839 507.999C34.7104 506.415 36.225 505.424 37.8877 505.424L37.8877 504L37.8877 502.576C35.0346 502.576 32.6131 504.276 31.3583 506.681L32.6211 507.34Z" fill="#FFDF3E" mask="url(#path-24-inside-2_2829_5415)"/>
<circle cx="37.3518" cy="516.997" r="1.24633" fill="#F86C60"/>
<path d="M45.6227 720.353C44.162 717.386 41.9411 715.491 40.6627 716.121C39.3847 716.75 39.5322 719.665 40.9928 722.632C41.8365 724.346 42.935 725.701 43.9577 726.419C43.8111 726.64 43.7048 726.889 43.6491 727.157C42.952 727.167 42.203 727.239 41.4313 727.383C38.1809 727.992 35.7585 729.621 36.0202 731.021C36.2824 732.422 39.1299 733.064 42.3805 732.456C43.2908 732.285 44.135 732.031 44.8746 731.728C45.1699 732.576 45.5392 733.381 45.9557 734.147C44.9478 733.777 43.6722 733.538 42.2799 733.502C38.9742 733.416 36.2647 734.5 36.2272 735.924C36.1901 737.349 38.84 738.574 42.1461 738.66C44.7702 738.728 47.0177 738.057 47.8522 737.066C48.5577 738.011 49.2913 738.892 49.9811 739.723C49.009 739.396 47.8143 739.186 46.5182 739.152C43.2125 739.066 40.503 740.151 40.4655 741.575C40.4284 742.999 43.0783 744.224 46.3844 744.31C48.9535 744.377 51.1621 743.736 52.0368 742.779C52.2922 743.112 52.5491 743.393 52.7448 743.604C53.0823 743.967 53.2604 744.159 53.3961 744.356C53.6172 744.678 53.8296 744.997 54.0358 745.313C53.0986 745.02 51.972 744.834 50.7565 744.802C47.4508 744.716 44.7413 745.801 44.7037 747.225C44.6667 748.65 47.3166 749.874 50.6227 749.961C52.991 750.022 55.0535 749.483 56.0465 748.648C56.6107 749.484 57.2009 750.259 57.6217 750.867C58.0899 751.543 58.6381 752.197 59.1012 752.737C59.098 752.733 59.1301 752.775 59.2662 752.964C59.3728 753.113 59.5251 753.325 59.6881 753.533C59.8441 753.732 60.0635 753.995 60.32 754.23C60.4498 754.349 60.6288 754.498 60.8512 754.631C61.0629 754.758 61.4178 754.934 61.8805 754.986L62.0973 754.999C63.1711 755.009 64.1002 754.204 64.2213 753.114C64.3205 752.219 63.846 751.395 63.0934 751.002C63.0723 750.977 63.0479 750.948 63.0221 750.916C62.9235 750.79 62.8229 750.651 62.7077 750.491C62.6545 750.417 62.5927 750.331 62.5348 750.253C62.4806 750.18 62.4039 750.078 62.319 749.979C61.8632 749.447 61.4398 748.936 61.1061 748.454C60.3757 747.399 59.7527 746.61 59.236 745.785C60.2021 745.104 61.2336 743.974 62.0983 742.557C63.821 739.735 64.232 736.845 63.0162 736.102C61.8001 735.36 59.417 737.046 57.694 739.869C57.3084 740.5 56.9915 741.137 56.7409 741.751C56.4234 741.327 56.0736 740.962 55.8493 740.72C55.543 740.391 55.3856 740.205 55.2828 740.038C55.2659 740.01 55.251 739.982 55.235 739.956C56.1302 739.264 57.0663 738.207 57.86 736.907C59.5828 734.084 59.9937 731.194 58.778 730.452C57.5618 729.709 55.1787 731.396 53.4557 734.218C53.0679 734.854 52.7499 735.494 52.4987 736.111C52.1588 735.695 51.8296 735.288 51.5172 734.882C52.6547 734.311 53.9713 733 55.0358 731.256C56.7585 728.434 57.1695 725.544 55.9537 724.801C54.7376 724.059 52.3545 725.745 50.6315 728.568C50.034 729.547 49.5975 730.535 49.3287 731.438C49.158 731.074 49.0034 730.702 48.8707 730.319C48.834 730.213 48.7941 730.104 48.7643 730.022C48.7317 729.933 48.7061 729.863 48.6842 729.798C48.6485 729.693 48.637 729.644 48.6344 729.632C48.6159 729.503 48.5716 729.218 48.4977 728.922C48.4617 728.778 48.4043 728.574 48.318 728.364C48.2847 728.282 48.1768 728.013 47.9498 727.723C47.9383 727.695 47.9217 727.66 47.9069 727.619C47.8737 727.526 47.8482 727.438 47.8327 727.377C47.7987 727.038 47.6837 726.722 47.5084 726.449C48.4274 725.996 49.3911 725.085 50.1354 723.866C51.4925 721.642 51.6071 719.238 50.3912 718.496C49.2209 717.781 47.2471 718.868 45.8903 720.932C45.8063 720.74 45.7178 720.546 45.6227 720.353Z" fill="#55B746"/>
</svg>
