<svg width="24" height="36" viewBox="0 0 24 36" fill="none" xmlns="http://www.w3.org/2000/svg">
<mask id="path-1-inside-1_122_1749" fill="white">
<path fill-rule="evenodd" clip-rule="evenodd" d="M22.2884 18.18C23.375 16.3749 24 14.2605 24 12C24 5.37258 18.6274 0 12 0C5.37258 0 0 5.37258 0 12C0 14.2605 0.625019 16.375 1.71167 18.1801L12 36L22.2884 18.18Z"/>
</mask>
<path fill-rule="evenodd" clip-rule="evenodd" d="M22.2884 18.18C23.375 16.3749 24 14.2605 24 12C24 5.37258 18.6274 0 12 0C5.37258 0 0 5.37258 0 12C0 14.2605 0.625019 16.375 1.71167 18.1801L12 36L22.2884 18.18Z" fill="#FFDF3E"/>
<path d="M22.2884 18.18L21.4316 17.6643L21.4269 17.6721L21.4223 17.68L22.2884 18.18ZM1.71167 18.1801L2.57769 17.6801L2.57312 17.6722L2.56841 17.6643L1.71167 18.1801ZM12 36L11.134 36.5L12 38L12.866 36.5L12 36ZM23 12C23 14.0737 22.4271 16.0105 21.4316 17.6643L23.1451 18.6958C24.3228 16.7393 25 14.4472 25 12H23ZM12 1C18.0751 1 23 5.92487 23 12H25C25 4.8203 19.1797 -1 12 -1V1ZM1 12C1 5.92487 5.92487 1 12 1V-1C4.8203 -1 -1 4.8203 -1 12H1ZM2.56841 17.6643C1.57286 16.0106 1 14.0737 1 12H-1C-1 14.4472 -0.322827 16.7394 0.854922 18.6958L2.56841 17.6643ZM12.866 35.5L2.57769 17.6801L0.84564 18.6801L11.134 36.5L12.866 35.5ZM21.4223 17.68L11.134 35.5L12.866 36.5L23.1544 18.68L21.4223 17.68Z" fill="#C8C8C8" mask="url(#path-1-inside-1_122_1749)"/>
<circle cx="12" cy="12" r="7" fill="#D5B61A"/>
</svg>
